<?xml version="1.0" encoding="utf-8"?>
<!-- Generator: Adobe Illustrator 24.1.0, SVG Export Plug-In . SVG Version: 6.00 Build 0)  -->
<svg version="1.1" xmlns="http://www.w3.org/2000/svg" xmlns:xlink="http://www.w3.org/1999/xlink" x="0px" y="0px"
	 viewBox="0 0 612 792" style="enable-background:new 0 0 612 792;" xml:space="preserve">
<style type="text/css">
	.st0{opacity:0.76;}
	.st1{fill:#C3D0C8;}
	.st2{fill:#DBD4CA;}
	.st3{fill:none;stroke:#000000;stroke-linecap:round;stroke-miterlimit:10;}
</style>
<g id="Layer_2">
	<g class="st0">
		<g>
			<path class="st1" d="M142.67,184.55c24.76,28.25,52.38,53.11,81.66,76.55c14.15,11.32,28.32,22.69,41.22,35.45
				c12.79,12.64,23.59,27.06,35.99,40.05c6.84,7.17,15.42,12.93,21.69,20.56c5.55,6.76,9.11,14.36,16.35,19.64
				c-0.34-2.62-0.67-5.24-1.01-7.85c-1.32,1.29-2.64,2.58-3.96,3.88c-0.68,0.67-4,4.22-3.52,4.08c0.7-0.21,0.02,0.04-0.59-0.75
				c-0.56-0.74-1.36-1.4-2.01-2.06c-1.56-1.6-3.12-3.21-4.69-4.81c-5.8-5.96-11.6-11.92-17.38-17.89
				c-11.57-11.94-23.11-23.93-34.56-35.99c-23.11-24.35-45.89-49.02-67.95-74.33c-6.09-6.99-12.13-14.02-18.1-21.11
				c-2.88-3.42-5.75-6.86-8.6-10.31c-2.91-3.52-6.54-6.94-7.36-11.6c-2.79,1.62-5.57,3.24-8.36,4.86
				c14.13,12.88,28.19,25.82,42.18,38.84c12.25,11.4,26.85,22.5,34.81,37.53c2.62-2.02,5.24-4.04,7.85-6.06
				c-10.25-11.85-20.71-23.51-33.95-32.1c-4.95-3.21-9.71,3.78-6.06,7.85c10.24,11.44,20.49,22.87,30.73,34.31
				c4.37,4.88,11.02-2.16,7.07-7.07c-6-7.46-12.89-13.88-20.57-19.57c-4.6-3.41-10.1,3.99-6.06,7.85
				c19.42,18.53,38.85,37.05,58.27,55.58c9.59,9.15,19.18,18.3,28.77,27.45c4.5,4.29,9.13,8.49,13.48,12.94
				c3.74,3.82,7.39,8.11,7.47,13.71c2.85-1.18,5.69-2.36,8.54-3.54c-29.47-26.36-56.51-55.31-80.8-86.51
				c-2.36,2.36-4.71,4.71-7.07,7.07c10.82,8.43,20.89,17.69,30.2,27.77c2.36-2.36,4.71-4.71,7.07-7.07
				c-16.69-17.46-34.89-33.33-54.37-47.6c-5.2-3.81-10.19,4.87-5.05,8.63c18.79,13.77,36.26,29.2,52.35,46.04
				c4.46,4.67,11.43-2.35,7.07-7.07c-9.31-10.07-19.38-19.33-30.2-27.77c-5.11-3.98-11.05,1.96-7.07,7.07
				c24.29,31.2,51.33,60.15,80.8,86.51c3.12,2.79,8.6,0.99,8.54-3.54c-0.16-11.95-9.39-19.9-17.41-27.54
				c-10.31-9.84-20.62-19.67-30.93-29.51c-20.86-19.9-41.72-39.8-62.59-59.7c-2.02,2.62-4.04,5.24-6.06,7.85
				c6.97,5.17,13.11,11.26,18.54,18.01c2.36-2.36,4.71-4.71,7.07-7.07c-10.24-11.44-20.49-22.87-30.73-34.31
				c-2.02,2.62-4.04,5.24-6.06,7.85c12.48,8.1,22.27,19.38,31.92,30.54c3.84,4.44,10.41-1.22,7.85-6.06
				c-8.11-15.31-22.46-26.59-34.92-38.2c-14.47-13.47-29.02-26.87-43.63-40.19c-3.86-3.52-9.21,0.01-8.36,4.86
				c1.36,7.71,8.18,13.92,12.99,19.7c5.93,7.12,11.93,14.19,17.98,21.21c12.11,14.04,24.45,27.88,36.96,41.56
				c25.02,27.39,50.7,54.17,76.54,80.78c3.56,3.67,7.13,7.34,10.7,11.01c3.21,3.29,6.28,7.27,10.01,9.96
				c8.27,5.95,14.79-3.59,20.24-8.91c2.49-2.44,1.52-6-1.01-7.85c-6.06-4.42-9.19-11.81-13.85-17.51
				c-5.52-6.76-12.95-11.83-19.11-18c-12.45-12.47-22.97-26.68-35.22-39.33c-25.35-26.17-55.95-46.57-82.84-71.06
				c-15.46-14.09-30.08-29.07-43.87-44.79C145.49,172.63,138.45,179.72,142.67,184.55L142.67,184.55z"/>
		</g>
	</g>
</g>
<g id="Layer_3">
	<g class="st0">
		<g>
			<path class="st2" d="M341.76,380.88c7.39,3.54,16.33,6.68,22.44,12.3c6.14,5.65,6.96,14.2,7.57,22.04
				c2.11-1.61,4.22-3.21,6.33-4.82c-7.83-1.86-14.79-5.66-21.03-10.7c-3.06-2.48-5.93-5.19-8.71-7.98c-2.88-2.9-6.6-6.01-8.72-9.5
				c0.17,1.28,0.34,2.57,0.5,3.85c0.24-1.51,2.45-3.04,3.53-4.01c-2.62-0.34-5.24-0.67-7.85-1.01c7.51,12.96,22.7,18.79,30.01,31.71
				c2.62-2.02,5.24-4.04,7.85-6.06c-2.66-3.03-5.26-6.11-7.75-9.27c-2.08-2.65-5.92-6.45-7.23-9.56c-0.17,1.28-0.34,2.57-0.5,3.85
				c0.1-0.15,0.21-0.29,0.31-0.44c-1.44,0.83-2.88,1.65-4.32,2.48c0.4-0.01,3.76,2.9,4.35,3.34c1.42,1.07,2.8,2.23,4.03,3.52
				c2.57,2.68,4.21,5.62,4.91,9.3c1.19,6.32,10.83,3.64,9.64-2.66c-1.1-5.82-4.37-10.86-8.67-14.86c-3.41-3.17-9.84-9.49-14.92-8.55
				c-2.36,0.44-4.22,2.27-4.56,4.69c-0.41,2.92,1.93,5.35,3.5,7.54c4.42,6.13,9.15,12.02,14.13,17.7c3.82,4.35,10.59-1.22,7.85-6.06
				c-7.4-13.07-22.57-18.86-30.01-31.71c-1.69-2.92-5.48-3.13-7.85-1.01c-3.33,2.96-7.9,7.43-5.6,12.27
				c2.49,5.23,8.74,10.11,12.88,14.07c8.97,8.59,19.33,15.8,31.56,18.71c2.94,0.7,6.59-1.45,6.33-4.82
				c-0.73-9.47-1.94-19.26-8.29-26.79c-6.7-7.95-17.54-11.83-26.67-16.2C341.03,369.48,335.95,378.1,341.76,380.88L341.76,380.88z"
				/>
		</g>
	</g>
</g>
<g id="Layer_1">
	<path class="st3" d="M378.27,422.24c-0.37-13.78,3.67-42.39-28.86-44.84c-0.21-0.02-0.44,0.03-0.63,0.13
		c-5.78,3.02-8.63,8.47-6.06,9.94c2.62,1.49,27.13,19.49,29.75,27.33s-5.2,3.34-14.07-2.24c-7.48-4.7-19.9-13.34-20.7-22.89
		c-0.8-9.55,3.98-13.93,7.96-15.92c3.88-1.94-137-149.5-201.07-196.19c-1-0.73-2.26,0.49-1.57,1.52
		c63.1,94.04,166.47,192.79,172.11,192.56c5.74-0.23,17.32-8.35,16.56-10.36c-1.86-4.88-18.65,0.71-13.63,12.28
		c3.05,7.02,12.26,12.78,12.71,13.23"/>
</g>
</svg>
