<?xml version="1.0" encoding="utf-8"?>
<!-- Generator: Adobe Illustrator 24.1.0, SVG Export Plug-In . SVG Version: 6.00 Build 0)  -->
<svg version="1.1" xmlns="http://www.w3.org/2000/svg" xmlns:xlink="http://www.w3.org/1999/xlink" x="0px" y="0px"
	 viewBox="0 0 612 792" style="enable-background:new 0 0 612 792;" xml:space="preserve">
<style type="text/css">
	.st0{opacity:0.58;}
	.st1{fill:#D9B7A7;}
	.st2{fill:#DBD4CA;}
	.st3{fill:none;stroke:#000000;stroke-linecap:round;stroke-miterlimit:10;}
</style>
<g id="Layer_2">
	<g class="st0">
		<g>
			<path class="st1" d="M145.8,183.95c2.33-6.37,7.34-14.85,4.92-21.71c-2.28-6.46-9.9-10.04-16.18-11.31
				c-7.39-1.5-15.16-0.44-16.81,8.1c-0.6,3.12-0.24,6.24,0.35,9.33c0.49,2.58,2.41,6.5,1.61,9.12c1.15-1.49,2.3-2.99,3.45-4.48
				c-1.69,1.1-7.81,1.5-10.84,2.09c-4.32,0.85-8.64,1.7-12.96,2.55c-7.43,1.46-13.8,2.9-15.75,11.3c-1.55,6.69-0.8,15.88,4.11,21.17
				c5.74,6.19,15.88,1.43,22.88,0.43c-1.33,0-2.66,0-3.99,0c-0.91-0.16-1-2.13-0.58-0.21c0.16,0.74,0.9,1.68,1.23,2.36
				c0.76,1.54,1.45,3.11,2.06,4.72c0.62,1.66,1.17,3.35,1.66,5.06c0.4,1.38,1.78,4.63,1.41,6.12c-0.09,0.35,0.65-0.17-0.6,0.72
				c-0.77,0.55-2.2,0.67-3.11,0.87c-3.54,0.76-7.18,1.01-10.75,1.64c-4.55,0.8-11.33,1.98-14.37,5.86
				c-3.24,4.14-1.85,8.43,0.08,12.64c4.51,9.83,11.45,17.48,22.78,18.06c1.88,0.1,7.05-0.72,8.44,1.04
				c0.45,0.57-0.26,5.03-0.26,6.54c0,6.94,3.61,13.13,10.58,15.01c6.19,1.67,13.76-0.28,19.7-2.19c8.26-2.66,6.53-10.41,5.25-17.04
				c-0.5-2.57,0.55-2.74,3.18-3.39c3.61-0.89,7.36,0.13,10.86-1.19c7.28-2.77,7.55-12.88,7.3-19.48
				c-0.27-6.95-2.73-13.63-10.87-13.41c-2.37,0.06-7.37,1.16-9.22,2.67c0.93-0.76,0.84,2.11,0.92,0.19c0.02-0.48-0.9-1.67-1.13-2.1
				c-0.93-1.77-1.87-3.55-2.63-5.4c-1.18-2.88-2.16-6.05-1.85-9.2c0.13-1.3,0.4-2.5,1.03-3.65c0.59-1.09-0.7-1.21,1.25-0.35
				c5.89,2.6,12.02,4.75,17.54-0.11c5.83-5.14,7.01-14.68,7.58-21.98c0.53-6.9,0.71-19.79-9.17-19.94
				c-3.78-0.06-6.82,2.38-10.28,3.55c-2.4,0.81-8.26,2.85-10.74,1.68c0.65,0.31-0.46-1.18-0.81-2c-0.73-1.69-1.41-3.4-2.11-5.09
				c-1.06-2.55-1.9-4.98-3.89-6.98c-2.8-2.82-7.81-2.94-10.61,0c-2.34,2.46-3.24,5.57-4.44,8.68c-1.72,4.49-3.44,8.98-5.12,13.48
				c-0.7,1.86-2.36,4.61-2.42,6.57c-0.86,1.66-0.27,1.62,1.77-0.12c2.55-0.71,2.9-1.24,1.03-1.58c-0.71-0.58-2.87-1.01-3.72-1.32
				c-2.41-0.85-4.82-1.7-7.23-2.55c-0.7-0.25-1.42-0.46-2.1-0.74c-0.84-0.35-1.46-1.11-0.22-0.22c-0.6,4.57-1.19,9.14-1.79,13.71
				c-0.27,0.11-1.54-0.18-0.52-0.15c0.53,0.02,1.12-0.12,1.65-0.18c1.9-0.2,3.81-0.41,5.71-0.61c4.51-0.48,9.36-1.45,13.83-0.37
				c9.66,2.34,18.72,8.01,28,11.53c5.97,2.27,15.39,5.76,18.73-2.17c1.62-3.85-0.25-7.67-2.72-10.62c-1.42-1.69-3.06-2.93-4.96-4.04
				c-0.86-0.5-1.76-1.06-2.66-1.49c-2.76-1.32,0.38-1.23,0.91,1.81c-0.25,1.93-0.5,3.85-0.76,5.78c-0.55,1.27-0.28,0.08,0.13-0.5
				c0.78-1.11,1.8-2.11,2.71-3.12c1.04-1.16,3.91-5.02,5.44-4.9c-1.26-0.34-2.52-0.68-3.79-1.02c0.91,0.39,1.25,2.92,1.04,4.59
				c-0.12,0.94-0.41,2.09-0.83,2.94c-1.23,2.5,0.05,0.72-0.95,0.85c-2.36,0.32-5.46-0.85-7.83-1.24c-3.03-0.5-6.06-1-9.08-1.49
				c-5.4-0.89-10.97-2.23-16.17,0.17c-4.62,2.13-7.48,6.2-9.27,10.84c-3.42,8.92-4.15,20.44,1.29,28.69
				c2.66,4.02,6.25,7.11,10.22,9.79c2,1.35,4.12,2.52,6.24,3.67c0.84,0.46,1.7,0.89,2.54,1.35c0.6,0.3,1.2,0.62,1.78,0.96
				c1.14,0.72,0.81,0.26-0.98-1.37c0-1.33,0-2.66,0-3.99c2.94-0.82,3.28-1.39,1.01-1.73c-0.33-0.14-0.65-0.29-0.98-0.43
				c-1.7-0.66-3.34-1.48-5.04-2.16c-3.3-1.32-6.66-2.47-10.11-3.3c-6.92-1.68-14.06-2.31-21.14-1.42c-3.18,0.4-6.57,1.85-9.71,2
				c-2.95,0.15-5.64-1.4-8.73-0.74c-6.21,1.32-9.87,7.52-9.05,13.65c0.88,6.6,6.72,10.75,13.04,11.39
				c6.77,0.69,12.11-3.3,18.59-3.95c5.06-0.5,11.82,1.06,15.11,5.28c2.9,3.73-0.87,9.36,0.4,13.97c1.27,4.6,6.86,7.01,11.02,4.48
				c4.85-2.94,7.46-8.85,10.49-13.43c2.58-3.91,6.76-6.22,9.58-9.8c3.56-4.53,1.9-13.37-5.3-12.8c-4.76,0.38-11.11,3.28-15.15,5.87
				c-6.75,4.32-2.43,17.15,5.78,13.71c1.21-0.38,0.99-0.5-0.66-0.36c-1.84-2.41-3.67-4.82-5.51-7.23c0,0.17-0.01,0.34-0.01,0.52
				c0.34-1.26,0.68-2.52,1.02-3.79c-4.22,5.88-8.93,11.96-9.78,19.37c-0.48,4.2,0.28,7.85,2.73,11.32c0.97,1.38,2.07,2.61,3.32,3.73
				c0.3,0.26,0.6,0.51,0.92,0.75c2.19,1.74,2.03,1.55-0.47-0.55c0.9-3.42,1.79-6.84,2.69-10.26c-0.31,0.16-0.62,0.32-0.93,0.47
				c1.26-0.34,2.52-0.68,3.79-1.02c-2.89,0.25-5.78,0.26-8.66-0.1c-4.03-0.5-7.5,3.81-7.5,7.5c0,4.47,3.46,7,7.5,7.5
				c4.43,0.55,9.33,0.66,13.37-1.4c3.49-1.78,4.81-7.01,2.69-10.26c-0.51-0.84-1.09-1.64-1.74-2.39c-1.69-1.3-2.02-1.56-1.01-0.78
				c1.28,1.1-0.85-0.75-1.08-1.05c-1.45-1.96-0.4-3.75,0.77-5.88c2.39-4.38,7.29-8.42,7.38-13.69c0.05-3.44-2.39-6.19-5.51-7.23
				c-2.36-0.79-5.04-0.59-7.31,0.36c1.93,4.57,3.85,9.14,5.78,13.71c3.17-2.03,7.04-3.25,10.48-4.77c-1.26,0.34-2.52,0.68-3.79,1.02
				c0.29-0.02,0.59-0.05,0.88-0.07c-1.77-4.27-3.54-8.54-5.3-12.8c-2.67,3.39-6.52,5.87-9.29,9.28c-2.04,2.52-3.5,5.27-5.29,7.96
				c-0.72,1.08-1.53,2.1-2.25,3.18c-0.64,0.95-1.12,1.03-0.19,0.47c3.67,1.49,7.35,2.99,11.02,4.48c0.41,1.5,0.01,0.23,0.18-0.48
				c0.24-0.94,0.47-2.01,0.65-2.97c0.57-3.01,0.71-5.77-0.14-8.75c-1.52-5.38-5.66-9.76-10.25-12.75
				c-10.14-6.6-21.56-6.2-32.54-2.41c-0.29,0.1-5.76,1.17-5.66,1.01c0.29,0.82,0.59,1.65,0.88,2.47c-3.83,1.49-4.52,2.42-2.09,2.78
				c0.93,0.6,3.24,0.49,4.33,0.48c5.93-0.06,11.45-2.54,17.46-2.47c6.13,0.07,12.09,1.58,17.82,3.69
				c5.45,2.01,10.73,5.56,16.82,4.17c5.6-1.28,9.82-6.6,9.25-12.37c-0.6-5.98-5.71-8.37-10.38-10.89c-3.93-2.12-8.67-4.46-11.25-8.3
				c-2.76-4.12-1.8-9.77-0.51-14.25c0.48-1.67,0.92-3.26,2.41-3.9c1.87-0.8,6.23,0.84,8.2,1.16c6.24,1.03,13.18,3.03,19.52,2.81
				c13.17-0.46,17.84-17.07,14.23-27.67c-2.09-6.13-7.61-10.92-14.41-9.52c-5.91,1.21-10.21,6.27-13.99,10.62
				c-3.38,3.9-6.67,8.33-3.7,13.67c1.23,2.22,3.52,3.55,5.65,4.77c0.91,0.52,1.9,0.98,2.79,1.53c0.85,0.52,0.77,1.95,0.46,0.43
				c0.64-2.43,1.29-4.86,1.93-7.3c-0.13,0.16-0.25,0.31-0.38,0.47c1.77-0.73,3.54-1.46,5.3-2.2c1.91-0.01,0.44,0.11-0.27-0.1
				c-1.11-0.32-2.22-0.62-3.33-0.96c-2.9-0.89-5.65-2.03-8.44-3.22c-6.49-2.76-12.93-5.68-19.49-8.26
				c-6.53-2.58-12.89-2.49-19.76-1.75c-3.97,0.42-9.12,0.17-12.85,1.69c-6.13,2.5-7.32,9.76-1.79,13.71
				c3.59,2.56,9.05,3.59,13.13,5.03c7.14,2.52,14.3,3.97,18.18-4.43c2.54-5.49,4.31-11.47,6.46-17.12c0.92-2.42,1.85-4.84,2.78-7.25
				c0.29-0.77,0.61-1.53,0.89-2.3c0.66-1.87,0.88-0.24-0.8,1.53c-3.54,0-7.07,0-10.61,0c-0.32-0.32-1.61-3.75-0.75-1.53
				c0.24,0.64,0.52,1.26,0.78,1.89c0.79,1.91,1.58,3.83,2.38,5.74c1.94,4.65,3.84,8.92,8.76,11.04c9.56,4.11,21.38-0.75,30.03-4.85
				c-1.26,0.34-2.52,0.68-3.79,1.02c0.34-0.02,0.68-0.05,1.01-0.07c-1.26-0.34-2.52-0.68-3.79-1.02c-3.12-2.11-2-2.53-1.91,0.57
				c0.04,1.5,0.03,3-0.06,4.49c-0.19,2.94-0.73,5.79-1.5,8.63c-0.2,0.72-0.62,1.54-0.67,2.29c-1,1.27-0.81,1.47,0.57,0.58
				c1.28-0.28,1.6-0.47,0.94-0.57c-0.32-0.74-5.49-2.5-6.05-2.69c-11.8-3.92-19.88,7.37-20.71,17.96
				c-0.43,5.44,0.99,10.8,3.07,15.78c1.87,4.46,3.98,9.98,7.65,13.31c4.15,3.77,10,3.75,15.01,1.97c0.63-0.22,2.61-0.68,3.01-1.18
				c-3.08-4.42-4.43-5.32-4.07-2.72c0.05,0.59,0.07,1.18,0.07,1.77c0.03,1.91,0.24,6.08-0.78,7.58c1.49-1.15,2.99-2.3,4.48-3.45
				c-1.68,0.66-4.32,0.17-6.16,0.38c-1.87,0.21-3.78,0.5-5.58,1.04c-3.31,1-6.62,2.61-9.1,5.06c-2.7,2.67-4.29,6.24-4.5,10.02
				c-0.09,1.66,0.17,3.38,0.49,5.01c0.2,1.07,1.48,3.85,1.27,4.79c1.15-1.49,2.3-2.99,3.45-4.48c1.06-0.21,0.67-0.11-1.17,0.3
				c-1.11,0.27-2.22,0.53-3.33,0.8c-1.62,0.38-3.52,0.5-5.1,0.95c-2.04,0.59-1.08-0.24-0.82,0.34c-0.47-1.02,0.13-3.26,0.18-4.36
				c0.41-8.43-3.35-15.5-11.8-18.03c-6.01-1.8-12.98,0.96-17.21-4.43c-1.31-1.67-2.35-3.63-3.31-5.51
				c-0.43-0.85-0.74-1.96-1.29-2.74c0.8,1.15,0.22-0.06,0.34,1.29c-0.34,1.26-0.68,2.52-1.02,3.79c-3.29,1.73-4.13,2.31-2.53,1.73
				c0.58-0.19,1.16-0.37,1.74-0.55c1.26-0.39,2.52-0.75,3.8-1.07c3.51-0.88,7.1-1.27,10.67-1.8c6.27-0.93,12.98-2.94,16.35-8.83
				c3.69-6.45,1.07-14.79-1.16-21.29c-2.12-6.18-5.23-16.52-12.23-18.74c-3.74-1.19-7.75,0.07-11.45,0.82
				c-0.86,0.17-1.71,0.35-2.57,0.52c-2.69,0.08-2.4,0.93,0.88,2.54c0.14-0.5-1.03-3.12-1.11-3.79c-0.01-0.04,0.01-4.39,0.34-4.29
				c-2.01,1.24-2.17,1.59-0.46,1.04c1.23-0.24,2.47-0.49,3.7-0.73c3.7-0.73,7.4-1.46,11.11-2.18c4.32-0.85,8.64-1.67,12.96-2.55
				c3.13-0.64,6.05-1.59,7.86-4.48c2.18-3.49,1.54-8.13,0.79-11.93c-0.45-2.3-2.89-7.26-1.74-9.35c-1.49,1.15-2.99,2.3-4.48,3.45
				c1.85-0.49,4.19,0.18,5.9,0.85c0.45,0.21,0.9,0.41,1.35,0.62c1.71,1.05,1.97,1.17,0.76,0.36c0.01,1.3-1.54,4.22-1.99,5.45
				c-0.89,2.42-1.77,4.84-2.66,7.26C128.01,189.04,142.5,192.96,145.8,183.95L145.8,183.95z"/>
		</g>
	</g>
</g>
<g id="Layer_3">
	<g class="st0">
		<g>
			<path class="st2" d="M207.63,205.43c0.92-12.05-2.42-27.59-17.21-28.61c-5.41-0.37-10.57,2.2-13.47,6.81
				c-1.49,2.37-2.33,5.15-2.47,7.94c-0.08,1.48,0.12,3.09,0.41,4.54c0.23,1.17,1.57,3.33,1.3,4.37c0.38-1.48-1.82,0.61-2.22,0.83
				c-1.17,0.64-2.34,1.07-3.6,1.47c-2.96,0.94-6.01,1.52-9.07,2.04c-5.89,1-12.49,1.36-17.03,5.77
				c-9.24,8.98-2.21,27.54,10.66,28.26c2.47,0.14,4.93-0.47,7.28-1.17c2.88-0.86,2.89-1.65,5.19,0c4.31,3.09,5.31,6.06,5.98,11.12
				c0.7,5.37,1.9,10.56,5.97,14.45c4.82,4.6,11.93,5.3,18.21,4.29c5.31-0.85,10.03-3.92,11.67-9.28c1.65-5.4-0.77-11.09,2.23-16.14
				c2.48-4.19,7.57-6.74,12.43-6.31c6.42,0.57,6.95,7.06,6.49,12.36c-0.61,7.03-1.58,14.31,5.94,18.07
				c5.7,2.85,14.49,2.83,20.5,1.21c6.86-1.84,9.9-8.12,9.24-14.8c-0.36-3.66-1.05-7.28-1.41-10.94c-0.19-1.95-0.34-3.9-0.46-5.86
				c-0.08-1.3-0.14-2.61-0.19-3.91c0.16-2.96-0.23-2.64-1.16,0.96c-1.77,0.73-3.54,1.46-5.3,2.2c2.43-0.32,6.29,2.19,8.87,2.9
				c4.02,1.11,8.2,1.75,12.35,2.04c8.48,0.59,14.35-3.1,16.39-11.64c1.78-7.44-0.42-15.48-6.56-20.22
				c-6.42-4.96-13.64-3.81-20.57-0.72c-1.17,0.52-2.29,1.06-3.52,1.44c-0.34,0.1-2.29,0.39-1.31,0.27c1.66-0.2,0.09,3.2,1.14-0.61
				c0.24-0.86,0.19-1.97,0.27-2.87c0.21-2.23,0.42-4.46,0.63-6.69c0.32-3.44,0.91-6.92-0.63-10.17c-1.81-3.84-5.14-5.52-8.88-7.05
				c-6.05-2.47-14.75-6.62-21.07-2.81c-3.29,1.98-4.76,5.76-4.52,9.44c0.22,3.35,1.35,5.54-0.5,8.73c-2.02,3.49-5.7,5.68-9.09,7.65
				c-1.57,0.92-2.33,1.62-3.48,1.33c-1.56-0.4-3.31-2.53-4.54-3.54c-3.2-2.65-6.5-5.13-10.49-6.46c-2.03-0.67-4.35-1.08-6.49-1.02
				c-1.84,0.06-3.96,1.24-5.7,1.12c1.77,0.73,3.54,1.46,5.3,2.2c1.99,2.25,0.75,0.68,0.97-1.65c0.23-2.48-0.55,0.66,0.37-1.56
				c-4.57,0.6-9.14,1.19-13.71,1.79c-0.92-2.09-0.18,0.48-0.07,1.22c0.31,2.06,0.62,4.13,0.93,6.19c0.92,6.15,1.84,12.31,2.76,18.46
				c0.9,6.03,1.8,12.06,2.71,18.09c0.32,2.11,0.63,4.23,0.95,6.34c0.19,1.25-0.2,3.37,0.01,1.23c1.24-2.16,2.48-4.32,3.71-6.48
				c-0.14,0.07-0.28,0.14-0.43,0.2c2.52,0,5.05,0,7.57,0c2.01,1.31-0.82-0.98-1.33-1.52c-1.49-1.57-2.95-3.16-4.38-4.78
				c-3.45-3.9-6.1-8.25-9.33-12.31c-3.37-4.23-7.59-7.4-13.02-8.26c-2.66-0.42-5.27-0.43-7.95-0.15c-1.24,0.13-2.48,0.38-3.72,0.51
				c-0.56,0.06-2.05,0.02,0.02-0.04c1.77,4.27,3.54,8.54,5.3,12.8c-1.72,1.37,0.42-0.05,0.99-0.3c1.74-0.77,3.43-1.68,5.17-2.47
				c3.8-1.72,7.81-3.4,11.96-4.01c-1.33,0-2.66,0-3.99,0c-1.91-4.18-2.91-5.25-3-3.21c-0.09,0.44-0.22,0.87-0.4,1.28
				c-0.31,0.35-1.6,1.82-0.25,0.54c4.27,1.77,8.54,3.54,12.8,5.3c-0.02-0.3-0.04-0.6-0.07-0.89c-0.34,1.26-0.68,2.52-1.02,3.79
				c-2.55,1.94-2.86,2.5-0.95,1.69c0.77-0.24,1.55-0.46,2.33-0.67c1.24-0.33,2.5-0.62,3.75-0.88c2.96-0.62,5.95-1.12,8.95-1.51
				c2.39-0.31,4.8-0.56,7.2-0.77c0.82-0.07,4.49,0.07,2.1-0.37c-1.1-4.18-2.21-8.36-3.31-12.54c1.61-1.32-1.94,0.7-2.48,0.95
				c-1.07,0.51-2.15,0.99-3.18,1.57c-7.43,4.2-2.43,15.92,5.78,13.71c8.29-2.23,16.64-6.49,24.07-10.7
				c5.21-2.95,10.55-6.43,14.53-10.97c2.48-2.84,4.59-5.99,6.78-9.05c2.28-3.19,5.15-5.58,7.69-8.49
				c6.26-7.19,0.81-16.76-8.27-16.12c-8.08,0.57-17.76,3.2-21.99,10.75c-3.7,6.6-0.05,14.18,1.37,20.94
				c1.28,6.13,2.22,12.34,2.99,18.56c1.14,9.25,1.95,18.54,2.58,27.84c0.65,9.54,15.43,9.71,15,0c-0.45-10.27-1.45-20.55-2.18-30.8
				c-0.12-1.73-0.16-3.49-0.75-5.13c-2.07-5.8-7.64-6.53-12.7-4.36c-4.8,2.07-10.41,3.71-14.45,7.08
				c3.54,3.54,7.07,7.07,10.61,10.61c2.07-2.55,4.61-4.79,6.91-7.13c1.52-1.55,3.05-3.1,4.57-4.65c0.58-0.59,1.33-1.17,1.81-1.84
				c0.53-0.74,1.21-0.59,0.05,0.01c-1.93,0.25-3.85,0.5-5.78,0.76c-0.73-0.11-2.67-3.39-2.61-2.11c0.02,0.45,0.82,1.43,1.05,1.84
				c0.85,1.49,1.7,2.97,2.54,4.46c2.28,4,4.3,8.37,9.16,9.59c4.71,1.18,9.69-1.16,14.14-2.47c1.88-0.55,3.55-0.99,5.51-0.95
				c0.72,0.01,1.93,0.28,2.69,0.18c0.5-0.06,0.93,0.49-0.03-0.06c-0.9-3.42-1.79-6.84-2.69-10.26c-0.13,0.27-0.26,0.54-0.39,0.82
				c1.49-1.15,2.99-2.3,4.48-3.45c0.18,0,0.36,0.01,0.54,0.01c1.77,4.27,3.54,8.54,5.3,12.8c-2.53,2.39-3.18,1.7-0.31,0.55
				c3.74-1.5,6.42-5.01,5.24-9.23c-1-3.56-5.43-6.76-9.23-5.24c-2.26,0.9-4.5,1.6-6.31,3.31c-5.04,4.76-0.85,12.35,5.3,12.8
				c3.43,0.25,6.85-1.74,8.32-4.81c1.74-3.63,1.06-8.11-2.69-10.26c-9.5-5.45-19.65,0.49-29.22,1.91c1.33,0,2.66,0,3.99,0
				c1.64,1.69,1.93,1.75,0.86,0.18c-0.34-0.59-0.68-1.18-1.01-1.78c-0.79-1.39-1.58-2.77-2.37-4.16c-0.73-1.27-1.38-2.66-2.21-3.87
				c-3.71-5.44-10.14-5.67-14.78-1.32c-4.58,4.3-9.48,8.89-13.44,13.77c-6.09,7.49,3.12,16.84,10.61,10.61
				c-1.65,1.37,0.22,0.12,0.91-0.14c1.51-0.57,2.98-1.3,4.46-1.95c1.37-0.6,2.74-1.2,4.12-1.8c0.44-0.19,3.29-1.33,1.18-0.5
				c-1.93-0.25-3.85-0.5-5.78-0.76c0.21,0.1,0.43,0.19,0.64,0.29c-1.15-1.49-2.3-2.99-3.45-4.48c-0.55-1.48,0.02-0.84,0.16,0.41
				c0.14,1.22,0.18,2.45,0.26,3.67c0.27,3.8,0.54,7.6,0.82,11.4c0.39,5.48,0.92,10.98,1.16,16.47c5,0,10,0,15,0
				c-0.63-9.3-1.45-18.59-2.58-27.84c-0.9-7.34-1.91-14.69-3.4-21.94c-0.36-1.73-0.74-3.46-1.17-5.17
				c-0.32-1.26-1.48-3.58-1.31-4.82c0.18-1.32,2.31-1.96,4.07-2.43c1.06-0.28,2.13-0.5,3.2-0.68c0.48-0.09,0.96-0.16,1.44-0.23
				c2.47-0.19,1.19-1.41-3.85-3.66c0-1.33,0-2.66,0-3.99c-0.02,0.07-3.32,2.76-3.74,3.25c-1.1,1.26-2.12,2.6-3.13,3.94
				c-2.12,2.81-3.96,5.88-6.27,8.53c-3.32,3.82-7.66,6.48-12.04,8.93c-6.19,3.46-13.04,7.02-19.94,8.88
				c1.93,4.57,3.85,9.14,5.78,13.71c2.97-1.68,6.03-2.68,8.7-4.87c4.22-3.45,1.99-11.57-3.31-12.54
				c-6.31-1.15-13.46,0.53-19.69,1.48c-7.21,1.1-22.35,2.41-21.59,12.6c0.48,6.42,7.88,9.97,12.8,5.3
				c8.28-7.85,6.22-26.28-7.98-23.53c-7.84,1.52-17.39,5.45-23.71,10.48c-5.19,4.13-0.78,12.97,5.3,12.8
				c3.52-0.1,7.48-2.04,10.91,0.14c2.29,1.45,3.74,4.45,5.23,6.6c1.7,2.45,3.56,4.8,5.49,7.07c2.6,3.07,5.29,6.4,8.32,9.07
				c6.72,5.93,14.9,0.41,13.72-7.88c-1.84-12.93-3.86-25.83-5.79-38.75c-0.86-5.75-0.98-12.2-3.35-17.56
				c-2.95-6.67-11.57-3.37-13.71,1.79c-2.5,6.04-1.47,17.63,5.83,19.74c4.62,1.33,7.6-2.01,11.89,0.62
				c3.94,2.41,6.94,6.1,11.09,8.24c9.31,4.8,19.64-2.37,26.49-8.65c3.46-3.17,6.24-7.27,7.63-11.77c1.51-4.88,0.5-9.13-0.23-13.98
				c0,1.33,0,2.66,0,3.99c-0.52,0.7-1.04,1.4-1.56,2.11c-1.26,0.34-2.52,0.68-3.79,1.02c2.69-0.29,5.7,1.21,8.2,2.11
				c0.51,0.18,4.1,1.98,4.42,1.77c-0.96,0.64-0.14-3.63-1.38-1.83c-0.43,0.62-0.24,2.69-0.31,3.46c-0.64,6.86-3.06,15.76,2.11,21.47
				c4.12,4.55,10.97,5.39,16.64,3.66c3.51-1.07,12.19-7.27,11.67,0.63c-0.05,0.77-0.37,1.41-0.49,2.16c0.24-1.42,2.09,0.2,0.26-0.84
				c-1.02-0.58-3.73-0.25-4.98-0.45c-3.69-0.58-7.3-1.68-10.77-3.04c-6.47-2.53-14.31-1.76-15.65,6.46
				c-1.21,7.37,0.74,16.07,1.75,23.39c-0.01-0.04,0.41,3.7,0.32,3.68c0.01,0,1.97-1.7,1.22-2.08c-0.32-0.16-1.76,0.21-2.14,0.23
				c-1.69,0.11-3.51-0.3-5.17-0.11c-0.54,0.06-2.25-0.89-0.94,0.42c1,0.99,0.28,0.19,0.64-0.88c2.12-6.36,0.68-15.47-2.53-21.2
				c-3.66-6.55-10.13-10.15-17.51-10.66c-13.72-0.95-27.13,8.72-29.52,22.46c-0.49,2.84-0.8,6.19-0.29,9.06
				c0.1,0.58-0.5,1.97,0.41,0.84c0.9-1.13,0.11-0.17-0.41-0.37c-1.18-0.45-2.9,0.49-4.19-0.05c-3.69-1.52-2.84-9.27-3.68-12.63
				c-1.66-6.67-6.14-11.09-11.52-15.02c-5.61-4.1-10.93-3.9-17.35-1.96c-0.63,0.19-1.34,0.52-2,0.57c-1.73,0.14,0.02,0.28-0.05,0.22
				c-0.35-0.29-1.52-2.59-1.26-3.1c0.25-0.48,8.42-1.3,9.53-1.48c7.6-1.25,16-3.11,21.85-8.5c2.9-2.67,4.84-6.23,4.87-10.24
				c0.01-1.92-0.4-3.81-0.95-5.64c-0.22-0.74-1.1-2.21-0.74-3.03c0.27-0.6-0.71-0.13,0.18-0.2c0.83-0.07,1.91,1.35,2.24,1.89
				c1.93,3.15,1,8.29,0.74,11.73C191.9,215.06,206.9,215.01,207.63,205.43L207.63,205.43z"/>
		</g>
	</g>
</g>
<g id="Layer_1">
	<path class="st3" d="M169.19,263.23c-11.63,0.83-23.67-2.22-22.84,6.39c0.84,8.61,5.34,11.75,2.44,16.54
		c-2.89,4.79-13.95,11.71-27.12,3.04c-13.17-8.68,1.49-16.55,1.5-21.11c0.01-4.56-21.36,3.3-33.58-3.22
		c-12.22-6.51-6.64-26.89-4.71-29.28c1.93-2.39,17.27,2.13,22.55,1.1c5.28-1.02,7.03-24.29,2.24-27.42
		c-4.79-3.13-13.93,4.04-18,2.11c-4.07-1.93-6.4-27.13-0.39-30.23s23.99,1.99,28.07,1.52c4.08-0.47-2.35-16.56-0.41-24.23
		c1.94-7.67,27.37-6.4,29.5,4.16c2.13,10.56-3.15,11.99-3.17,16.78c-0.01,4.8,26.17-6.16,29.27,1.05c3.1,7.21,4.72,25.92-1.52,28.78
		c-6.25,2.86-24.45-7.99-26.39,1.6c-1.95,9.59-4.39,24.61,2.8,26c0,0,11.4,1.9,16.72-2.53c0,0,10.05-4.85,9.91,12.04
		c-0.14,16.9,5.43,17.69,5.43,17.69s16.98,7.23,25.02-1.91c8.04-9.13-5.45-15.13,1.21-22.2c6.66-7.08,27.26-5.42,26.09,4.88
		c-1.17,10.3-3.72,18.76,2.46,19.93c6.18,1.16,24.25,4.88,25.88-2.9c1.63-7.78-2.9-27.25,1.92-29.53s16.91,11.73,26.1,0.99
		s2.61-32.27-10.22-28.19c-12.83,4.08-16.27,4.99-16.7-4.4c-0.43-9.39,5.57-26.77-15.95-25c-21.53,1.77-15.58,3.85-15.17,19.65
		s-24.99,12.29-27.02-0.31c0,0,8.08-21.73-18.27-15.85"/>
</g>
</svg>
